<svg width="22" height="21" viewBox="0 0 22 21" fill="none" xmlns="http://www.w3.org/2000/svg">
<path fill-rule="evenodd" clip-rule="evenodd" d="M11 20.9377C4.92486 20.9377 0 16.2506 0 10.4689C0 4.68707 4.92486 0 11 0C17.0751 0 22 4.68707 22 10.4689C22 16.2506 17.0751 20.9377 11 20.9377ZM10.9995 19.0351C15.9701 19.0351 19.9995 15.2003 19.9995 10.4697C19.9995 5.73914 15.9701 1.90427 10.9995 1.90427C6.02896 1.90427 1.99953 5.73914 1.99953 10.4697C1.99953 15.2003 6.02896 19.0351 10.9995 19.0351ZM16.0001 9.51767H12.0001V5.71081H10.0001V9.51767H6.00007V11.4211H10.0001V15.228H12.0001V11.4211H16.0001V9.51767Z" fill="white"/>
</svg>
