<svg width="19" height="19" viewBox="0 0 19 19" fill="none" xmlns="http://www.w3.org/2000/svg">
<path d="M4.54282 11.6235L2.41977 13.7486L5.25184 16.5806L16.5811 5.25034L13.7491 2.41927L11.623 4.54232L13.0401 5.95836L11.623 7.3764L10.207 5.95936L8.79094 7.3764L10.207 8.79244L8.79094 10.2085L7.3749 8.79244L5.95786 10.2085L7.3749 11.6245L5.95786 13.0416L4.54282 11.6225V11.6235ZM14.4571 0.29421L18.7052 4.54232C18.8929 4.73012 18.9984 4.9848 18.9984 5.25034C18.9984 5.51589 18.8929 5.77056 18.7052 5.95836L5.95886 18.7047C5.77106 18.8924 5.51639 18.9979 5.25084 18.9979C4.9853 18.9979 4.73062 18.8924 4.54282 18.7047L0.294711 14.4566C0.10697 14.2688 0.00150229 14.0141 0.00150229 13.7486C0.00150229 13.483 0.10697 13.2284 0.294711 13.0406L13.0411 0.29421C13.2289 0.106469 13.4835 0.00100137 13.7491 0.00100137C14.0146 0.00100137 14.2693 0.106469 14.4571 0.29421ZM11.623 15.8716L13.0401 14.4556L15.2853 16.7018H16.7013V15.2858L14.4561 13.0396L15.8721 11.6235L18.5129 14.2633V18.5124H14.2648L11.624 15.8716H11.623ZM3.12679 7.3744L0.293709 4.54232C0.200599 4.44932 0.126734 4.33887 0.0763368 4.2173C0.02594 4.09572 0 3.96541 0 3.8338C0 3.7022 0.02594 3.57188 0.0763368 3.45031C0.126734 3.32874 0.200599 3.21829 0.293709 3.12528L3.12679 0.293208C3.31458 0.105467 3.56926 0 3.83481 0C4.10035 0 4.35503 0.105467 4.54282 0.293208L7.3769 3.12528L5.95886 4.54232L3.83481 2.41727L2.41877 3.8343L4.54282 5.95736L3.12679 7.3744Z" fill="#7D7676"/>
</svg>
