<svg width="11" height="16" viewBox="0 0 11 16" fill="none" xmlns="http://www.w3.org/2000/svg">
<path fill-rule="evenodd" clip-rule="evenodd" d="M0 3C0 1.343 1.343 0 3 0H8C9.657 0 11 1.343 11 3C11 4.043 10.467 4.963 9.659 5.5C10.467 6.037 11 6.957 11 8C11 9.657 9.657 11 8 11C7.232 11 6.53 10.711 6 10.236V13C6 14.657 4.657 16 3 16C1.343 16 0 14.657 0 13C0 11.956 0.533 11.038 1.341 10.5C0.533 9.962 0 9.044 0 8C0 6.957 0.533 6.037 1.341 5.5C0.533 4.963 0 4.043 0 3ZM3 5C1.895 5 1 4.105 1 3C1 1.895 1.895 1 3 1H5V5H3ZM5 6H3C1.895 6 1 6.895 1 8C1 9.105 1.895 10 3 10H5V6ZM5 11H3C1.895 11 1 11.895 1 13C1 14.105 1.895 15 3 15C4.105 15 5 14.105 5 13V11ZM8 6C6.895 6 6 6.895 6 8C6 9.105 6.895 10 8 10C9.105 10 10 9.105 10 8C10 6.895 9.105 6 8 6ZM8 5C9.105 5 10 4.105 10 3C10 1.895 9.105 1 8 1H6V5H8Z" fill="black"/>
</svg>
