<svg width="23" height="23" viewBox="0 0 23 23" fill="none" xmlns="http://www.w3.org/2000/svg">
<path d="M5.49969 14.0718L2.92945 16.6445L6.35806 20.0731L20.0737 6.35624L16.6451 2.92885L14.0712 5.49909L15.7867 7.21339L14.0712 8.93012L12.3569 7.2146L10.6426 8.93012L12.3569 10.6444L10.6426 12.3587L8.9283 10.6444L7.21278 12.3587L8.9283 14.073L7.21278 15.7885L5.49969 14.0706V14.0718ZM17.5022 0.35618L22.6451 5.49909C22.8724 5.72644 23.0001 6.03476 23.0001 6.35624C23.0001 6.67772 22.8724 6.98604 22.6451 7.21339L7.214 22.6445C6.98664 22.8718 6.67832 22.9995 6.35685 22.9995C6.03537 22.9995 5.72705 22.8718 5.49969 22.6445L0.356787 17.5016C0.129501 17.2743 0.00181872 16.966 0.00181872 16.6445C0.00181872 16.323 0.129501 16.0147 0.356787 15.7873L15.7879 0.35618C16.0153 0.128895 16.3236 0.00121229 16.6451 0.00121229C16.9666 0.00121229 17.2749 0.128895 17.5022 0.35618ZM14.0712 19.2147L15.7867 17.5004L18.5049 20.2198H20.2192V18.5055L17.501 15.7861L19.2153 14.0718L22.4124 17.2676V22.4118H17.2695L14.0724 19.2147H14.0712ZM3.78539 8.92769L0.355574 5.49909C0.242852 5.38649 0.153428 5.25278 0.0924159 5.1056C0.0314038 4.95842 0 4.80066 0 4.64133C0 4.48201 0.0314038 4.32424 0.0924159 4.17706C0.153428 4.02988 0.242852 3.89617 0.355574 3.78357L3.78539 0.354968C4.01275 0.127682 4.32106 0 4.64254 0C4.96402 0 5.27234 0.127682 5.49969 0.354968L8.93072 3.78357L7.214 5.49909L4.64254 2.92642L2.92824 4.64194L5.49969 7.21218L3.78539 8.92769Z" fill="white"/>
</svg>
