<svg width="23" height="26" viewBox="0 0 23 26" fill="none" xmlns="http://www.w3.org/2000/svg">
<path d="M21.7223 7.69725L14.0557 0.976135C13.3529 0.347526 12.443 0 11.5001 0C10.5572 0 9.64737 0.347526 8.94457 0.976135L1.2779 7.69725C0.872036 8.06023 0.54816 8.50551 0.327835 9.00345C0.10751 9.50138 -0.00420716 10.0405 0.000121126 10.585V21.7528C0.000121126 22.7695 0.403989 23.7445 1.12288 24.4634C1.84177 25.1823 2.81679 25.5861 3.83345 25.5861H19.1668C20.1835 25.5861 21.1585 25.1823 21.8774 24.4634C22.5963 23.7445 23.0001 22.7695 23.0001 21.7528V10.5722C23.0026 10.0299 22.89 9.49321 22.6698 8.99762C22.4495 8.50202 22.1266 8.0588 21.7223 7.69725ZM14.0557 23.0306H8.94457V16.6417C8.94457 16.3028 9.07919 15.9778 9.31882 15.7382C9.55845 15.4985 9.88345 15.3639 10.2223 15.3639H12.7779C13.1168 15.3639 13.4418 15.4985 13.6814 15.7382C13.9211 15.9778 14.0557 16.3028 14.0557 16.6417V23.0306ZM20.4446 21.7528C20.4446 22.0917 20.3099 22.4167 20.0703 22.6563C19.8307 22.896 19.5057 23.0306 19.1668 23.0306H16.6112V16.6417C16.6112 15.625 16.2074 14.65 15.4885 13.9311C14.7696 13.2122 13.7946 12.8084 12.7779 12.8084H10.2223C9.20568 12.8084 8.23066 13.2122 7.51177 13.9311C6.79288 14.65 6.38901 15.625 6.38901 16.6417V23.0306H3.83345C3.49457 23.0306 3.16956 22.896 2.92993 22.6563C2.6903 22.4167 2.55568 22.0917 2.55568 21.7528V10.5722C2.55591 10.3908 2.59477 10.2115 2.66968 10.0463C2.74458 9.88105 2.85382 9.73365 2.99012 9.61391L10.6568 2.90558C10.89 2.70073 11.1897 2.58775 11.5001 2.58775C11.8105 2.58775 12.1103 2.70073 12.3435 2.90558L20.0101 9.61391C20.1464 9.73365 20.2557 9.88105 20.3306 10.0463C20.4055 10.2115 20.4443 10.3908 20.4446 10.5722V21.7528Z" fill="#7D7676"/>
</svg>
