<svg width="15" height="15" viewBox="0 0 15 15" fill="none" xmlns="http://www.w3.org/2000/svg">
<path d="M7.49931 14.9986C3.35744 14.9986 0 11.6412 0 7.49931C0 3.35744 3.35744 0 7.49931 0C11.6412 0 14.9986 3.35744 14.9986 7.49931C14.9986 11.6412 11.6412 14.9986 7.49931 14.9986ZM7.49931 13.4988C9.09046 13.4988 10.6164 12.8667 11.7416 11.7416C12.8667 10.6164 13.4988 9.09046 13.4988 7.49931C13.4988 5.90816 12.8667 4.38218 11.7416 3.25706C10.6164 2.13195 9.09046 1.49986 7.49931 1.49986C5.90816 1.49986 4.38218 2.13195 3.25706 3.25706C2.13195 4.38218 1.49986 5.90816 1.49986 7.49931C1.49986 9.09046 2.13195 10.6164 3.25706 11.7416C4.38218 12.8667 5.90816 13.4988 7.49931 13.4988ZM3.74966 6.74938H11.249V8.24924H3.74966V6.74938Z" fill="#7D7676"/>
</svg>
