<svg width="20" height="20" viewBox="0 0 20 20" fill="none" xmlns="http://www.w3.org/2000/svg">
<path fill-rule="evenodd" clip-rule="evenodd" d="M9.98737 20.0004C4.4715 20.0004 0 15.5232 0 10.0002C0 4.47725 4.4715 0 9.98737 0C15.5032 0 19.9747 4.47725 19.9747 10.0002C19.9747 15.5232 15.5032 20.0004 9.98737 20.0004ZM9.98737 18.1822C14.5004 18.1822 18.1588 14.519 18.1588 10.0002C18.1588 5.48142 14.5004 1.81822 9.98737 1.81822C5.47438 1.81822 1.81588 5.48142 1.81588 10.0002C1.81588 14.519 5.47438 18.1822 9.98737 18.1822ZM12.9771 6.63003L8.17147 11.4419L6.08966 9.35736L4.80563 10.643L8.17147 14.0132L14.2611 7.91571L12.9771 6.63003Z" fill="#7D7676"/>
</svg>
