<svg width="20" height="30" viewBox="0 0 20 30" fill="none" xmlns="http://www.w3.org/2000/svg">
<g clip-path="url(#clip0_2914_1368)">
<path d="M10 15C10 12.239 12.239 10 15 10C17.761 10 20 12.239 20 15C20 17.761 17.761 20 15 20C12.239 20 10 17.762 10 15Z" fill="#1ABCFE"/>
<path d="M0 25C0 22.239 2.239 20 5 20H10V25C10 27.761 7.761 30 5 30C2.239 30 0 27.761 0 25Z" fill="#0ACF83"/>
<path d="M10 0V10H15C17.761 10 20 7.761 20 5C20 2.239 17.761 0 15 0H10Z" fill="#FF7262"/>
<path d="M0 5C0 7.761 2.239 10 5 10H10V0H5C2.239 0 0 2.239 0 5Z" fill="#F24E1E"/>
<path d="M0 15C0 17.761 2.239 20 5 20H10V10H5C2.239 10 0 12.239 0 15Z" fill="#A259FF"/>
</g>
<defs>
<clipPath id="clip0_2914_1368">
<rect width="20" height="30" fill="white"/>
</clipPath>
</defs>
</svg>
