<svg width="24" height="14" viewBox="0 0 24 14" fill="none" xmlns="http://www.w3.org/2000/svg">
<g clip-path="url(#clip0_2914_1375)">
<path fill-rule="evenodd" clip-rule="evenodd" d="M23.52 7.159C23.52 6.663 23.4429 6.185 23.3023 5.727H12V8.435H18.4577C18.18 9.31 17.3349 10.051 16.0629 10.548V12.304H19.9423C22.2103 11.085 23.52 9.291 23.52 7.159Z" fill="#4285F4"/>
<path fill-rule="evenodd" clip-rule="evenodd" d="M12 14C15.24 14 17.9572 13.373 19.9423 12.304L16.0629 10.548C14.988 10.968 13.6114 11.216 12 11.216C8.87316 11.216 6.22802 9.985 5.28345 8.33H1.27716V10.144C3.2503 12.43 7.30973 14 12 14Z" fill="#34A853"/>
<path fill-rule="evenodd" clip-rule="evenodd" d="M5.28514 8.33C5.04514 7.91 4.908 7.461 4.908 7C4.908 6.539 5.04514 6.09 5.28514 5.67V3.856H1.27714C0.462857 4.801 0 5.87 0 7C0 8.13 0.462857 9.199 1.27714 10.144L5.28514 8.33Z" fill="#FBBC05"/>
<path fill-rule="evenodd" clip-rule="evenodd" d="M12 2.784C13.7623 2.784 15.3429 3.137 16.5874 3.831L20.0297 1.823C17.9486 0.693 15.2349 0 12 0C7.30973 0 3.2503 1.569 1.27716 3.856L5.28516 5.67C6.22802 4.015 8.87487 2.784 12 2.784Z" fill="#EA4335"/>
</g>
<defs>
<clipPath id="clip0_2914_1375">
<rect width="24" height="14" fill="white"/>
</clipPath>
</defs>
</svg>
