<svg width="63" height="62" viewBox="0 0 63 62" fill="none" xmlns="http://www.w3.org/2000/svg">
<path d="M42.073 33.0574L63.0014 45.2646L54.0669 47.819L60.4529 58.8812L55.2479 61.8864L48.8618 50.8272L42.1812 57.2885L42.073 33.0574ZM36.0626 12.0209H42.073V18.0313H57.0991C57.8962 18.0313 58.6605 18.3479 59.2241 18.9115C59.7877 19.4751 60.1043 20.2395 60.1043 21.0365V33.0574H54.0939V24.0417H24.0417V54.0939H36.0626V60.1043H21.0365C20.2395 60.1043 19.4751 59.7877 18.9115 59.2241C18.3479 58.6606 18.0313 57.8962 18.0313 57.0991V42.073H12.0209V36.0626H18.0313V21.0365C18.0313 20.2395 18.3479 19.4751 18.9115 18.9115C19.4751 18.3479 20.2395 18.0313 21.0365 18.0313H36.0626V12.0209ZM6.01043 36.0626V42.073H0V36.0626H6.01043ZM6.01043 24.0417V30.0522H0V24.0417H6.01043ZM6.01043 12.0209V18.0313H0V12.0209H6.01043ZM6.01043 0V6.01043H0V0H6.01043ZM18.0313 0V6.01043H12.0209V0H18.0313ZM30.0522 0V6.01043H24.0417V0H30.0522ZM42.073 0V6.01043H36.0626V0H42.073Z" fill="#DADADA"/>
</svg>
