<svg width="18" height="20" viewBox="0 0 18 20" fill="none" xmlns="http://www.w3.org/2000/svg">
<path fill-rule="evenodd" clip-rule="evenodd" d="M1.42594 12.382C0.907944 11.895 0.855944 11.074 1.30794 10.526C1.74294 9.999 2.49894 9.906 3.04794 10.31L4.39494 11.306L5.39494 12.045V4C5.39494 3.448 5.84294 3 6.39494 3C6.94794 3 7.39494 3.448 7.39494 4V9H8.39494V2C8.39494 1.448 8.84294 1 9.39494 1C9.94794 1 10.3949 1.448 10.3949 2V9H11.3949V3C11.3949 2.448 11.8429 2 12.3949 2C12.9479 2 13.3949 2.448 13.3949 3V9H14.3949V6C14.3949 5.448 14.8429 5 15.3949 5C15.9479 5 16.3949 5.448 16.3949 6V14C16.3949 16.762 14.1569 19 11.3949 19H10.3949C8.84194 19 7.45494 18.292 6.53694 17.18C6.50094 17.152 6.46594 17.12 6.43094 17.088L1.42594 12.382ZM5.82594 17.889L5.74594 17.817L0.740944 13.111C-0.161056 12.263 -0.252056 10.844 0.536944 9.89C1.30894 8.954 2.66394 8.784 3.64194 9.506L4.39494 10.063V4C4.39494 2.896 5.29094 2 6.39494 2C6.75994 2 7.10094 2.097 7.39494 2.268V2C7.39494 0.895 8.29094 0 9.39494 0C10.2679 0 11.0099 0.559 11.2829 1.338C11.6009 1.124 11.9829 1 12.3949 1C13.4999 1 14.3949 1.895 14.3949 3V4.268C14.6899 4.098 15.0309 4 15.3949 4C16.4999 4 17.3949 4.896 17.3949 6V14C17.3949 17.314 14.7089 20 11.3949 20H10.3949C8.56494 20 6.92494 19.179 5.82494 17.889H5.82594Z" fill="white"/>
</svg>
