<svg width="25" height="25" viewBox="0 0 25 25" fill="none" xmlns="http://www.w3.org/2000/svg">
<path d="M6.25 6.25V1.25C6.25 0.918479 6.3817 0.600537 6.61612 0.366116C6.85054 0.131696 7.16848 0 7.5 0H23.75C24.0815 0 24.3995 0.131696 24.6339 0.366116C24.8683 0.600537 25 0.918479 25 1.25V17.5C25 17.8315 24.8683 18.1495 24.6339 18.3839C24.3995 18.6183 24.0815 18.75 23.75 18.75H18.75V23.7412C18.75 24.4363 18.1888 25 17.4913 25H1.25875C1.0934 25.0002 0.929646 24.9677 0.776853 24.9045C0.62406 24.8413 0.485232 24.7486 0.368313 24.6317C0.251395 24.5148 0.158682 24.3759 0.0954822 24.2231C0.0322823 24.0704 -0.000163821 23.9066 6.2195e-07 23.7412L0.00375065 7.50875C0.00375065 6.81375 0.565001 6.25 1.2625 6.25H6.25ZM8.75 6.25H17.4913C18.1863 6.25 18.75 6.81125 18.75 7.50875V16.25H22.5V2.5H8.75V6.25ZM16.25 8.75H2.50375L2.5 22.5H16.25V8.75ZM8.12875 20L3.70875 15.58L5.47625 13.8125L8.12875 16.465L13.4313 11.1613L15.1988 12.9288L8.12875 20Z" fill="#09121F"/>
</svg>
