<svg width="16" height="18" viewBox="0 0 16 18" fill="none" xmlns="http://www.w3.org/2000/svg">
<path d="M15.1111 17.7778H0.888889C0.653141 17.7778 0.427048 17.6841 0.260349 17.5174C0.0936505 17.3507 0 17.1246 0 16.8889V0.888889C0 0.653141 0.0936505 0.427048 0.260349 0.260349C0.427048 0.0936505 0.653141 0 0.888889 0H15.1111C15.3469 0 15.573 0.0936505 15.7397 0.260349C15.9063 0.427048 16 0.653141 16 0.888889V16.8889C16 17.1246 15.9063 17.3507 15.7397 17.5174C15.573 17.6841 15.3469 17.7778 15.1111 17.7778ZM14.2222 16V1.77778H1.77778V16H14.2222ZM4.44444 4.44444H11.5556V6.22222H4.44444V4.44444ZM4.44444 8H11.5556V9.77778H4.44444V8ZM4.44444 11.5556H8.88889V13.3333H4.44444V11.5556Z" fill="black"/>
</svg>
