<svg width="17" height="17" viewBox="0 0 17 17" fill="none" xmlns="http://www.w3.org/2000/svg">
<path d="M13.4147 12.2314L16.9986 15.8146L15.8146 16.9986L12.2314 13.4147C10.8982 14.4834 9.23988 15.0647 7.53115 15.0623C3.37395 15.0623 0 11.6883 0 7.53115C0 3.37395 3.37395 0 7.53115 0C11.6883 0 15.0623 3.37395 15.0623 7.53115C15.0647 9.23988 14.4834 10.8982 13.4147 12.2314ZM11.736 11.6105C12.798 10.5184 13.3911 9.05447 13.3887 7.53115C13.3887 4.29443 10.767 1.67359 7.53115 1.67359C4.29443 1.67359 1.67359 4.29443 1.67359 7.53115C1.67359 10.767 4.29443 13.3887 7.53115 13.3887C9.05447 13.3911 10.5184 12.798 11.6105 11.736L11.736 11.6105Z" fill="#7D7676"/>
</svg>
